HIERARCHY
ROOT Hips
{
  OFFSET -139.079 72.9421 1310.16
  CHANNELS 6 Xposition Yposition Zposition Zrotation Xrotation Yrotation
  JOINT Spine
  {
    OFFSET 0 8 0
    CHANNELS 6 Xposition Yposition Zposition Zrotation Xrotation Yrotation
    JOINT Spine1
    {
      OFFSET 0 8 0
      CHANNELS 6 Xposition Yposition Zposition Zrotation Xrotation Yrotation
      JOINT Spine2
      {
        OFFSET 0 8 0
        CHANNELS 6 Xposition Yposition Zposition Zrotation Xrotation Yrotation
        JOINT Spine3
        {
          OFFSET 0 8 0
          CHANNELS 6 Xposition Yposition Zposition Zrotation Xrotation Yrotation
          JOINT Neck
          {
            OFFSET 0 17 0
            CHANNELS 6 Xposition Yposition Zposition Zrotation Xrotation Yrotation
            JOINT Head
            {
              OFFSET 0 10.8 0
              CHANNELS 6 Xposition Yposition Zposition Zrotation Xrotation Yrotation
              End Site
              {
                OFFSET 0 20.25 0
              }
            }
          }
          JOINT LeftShoulder
          {
            OFFSET 5 17 0
            CHANNELS 6 Xposition Yposition Zposition Zrotation Xrotation Yrotation
            JOINT LeftShoulder2
            {
              OFFSET 6.45 0 0
              CHANNELS 6 Xposition Yposition Zposition Zrotation Xrotation Yrotation
              JOINT LeftArm
              {
                OFFSET 6.45 0 0
                CHANNELS 6 Xposition Yposition Zposition Zrotation Xrotation Yrotation
                JOINT LeftForeArm
                {
                  OFFSET 0 -32.4 -2
                  CHANNELS 6 Xposition Yposition Zposition Zrotation Xrotation Yrotation
                  JOINT LeftHand
                  {
                    OFFSET 0 -25.65 2
                    CHANNELS 6 Xposition Yposition Zposition Zrotation Xrotation Yrotation
                    JOINT LeftHandThumb1
                    {
                      OFFSET -0.5 -1.5 2.65
                      CHANNELS 6 Xposition Yposition Zposition Zrotation Xrotation Yrotation
                      JOINT LeftHandThumb2
                      {
                        OFFSET 0 -3.8 3.7
                        CHANNELS 6 Xposition Yposition Zposition Zrotation Xrotation Yrotation
                        JOINT LeftHandThumb3
                        {
                          OFFSET 0 -3 2.7
                          CHANNELS 6 Xposition Yposition Zposition Zrotation Xrotation Yrotation
                          End Site
                          {
                            OFFSET 0 -2.3 1.8
                          }
                        }
                      }
                    }
                    JOINT LeftHandIndex
                    {
                      OFFSET 0 -1.9 1.6
                      CHANNELS 6 Xposition Yposition Zposition Zrotation Xrotation Yrotation
                      JOINT LeftHandIndex1
                      {
                        OFFSET 0 -8.3 1.9
                        CHANNELS 6 Xposition Yposition Zposition Zrotation Xrotation Yrotation
                        JOINT LeftHandIndex2
                        {
                          OFFSET 0 -4.5 0
                          CHANNELS 6 Xposition Yposition Zposition Zrotation Xrotation Yrotation
                          JOINT LeftHandIndex3
                          {
                            OFFSET 0 -3.4 0
                            CHANNELS 6 Xposition Yposition Zposition Zrotation Xrotation Yrotation
                            End Site
                            {
                              OFFSET 0 -2.6 0
                            }
                          }
                        }
                      }
                    }
                    JOINT LeftHandMiddle
                    {
                      OFFSET -0.25 -2.2 0.4
                      CHANNELS 6 Xposition Yposition Zposition Zrotation Xrotation Yrotation
                      JOINT LeftHandMiddle1
                      {
                        OFFSET 0 -8.3 1
                        CHANNELS 6 Xposition Yposition Zposition Zrotation Xrotation Yrotation
                        JOINT LeftHandMiddle2
                        {
                          OFFSET 0 -4.65 0
                          CHANNELS 6 Xposition Yposition Zposition Zrotation Xrotation Yrotation
                          JOINT LeftHandMiddle3
                          {
                            OFFSET 0 -3.3 0
                            CHANNELS 6 Xposition Yposition Zposition Zrotation Xrotation Yrotation
                            End Site
                            {
                              OFFSET 0 -2.7 0
                            }
                          }
                        }
                      }
                    }
                    JOINT LeftHandRing
                    {
                      OFFSET -0.5 -2.15 -0.8
                      CHANNELS 6 Xposition Yposition Zposition Zrotation Xrotation Yrotation
                      JOINT LeftHandRing1
                      {
                        OFFSET 0 -7.75 -0.2
                        CHANNELS 6 Xposition Yposition Zposition Zrotation Xrotation Yrotation
                        JOINT LeftHandRing2
                        {
                          OFFSET 0 -3.8 0
                          CHANNELS 6 Xposition Yposition Zposition Zrotation Xrotation Yrotation
                          JOINT LeftHandRing3
                          {
                            OFFSET 0 -3.4 0
                            CHANNELS 6 Xposition Yposition Zposition Zrotation Xrotation Yrotation
                            End Site
                            {
                              OFFSET 0 -2.6 0
                            }
                          }
                        }
                      }
                    }
                    JOINT LeftHandPinky
                    {
                      OFFSET -0.75 -1.75 -1.85
                      CHANNELS 6 Xposition Yposition Zposition Zrotation Xrotation Yrotation
                      JOINT LeftHandPinky1
                      {
                        OFFSET 0 -7.15 -1
                        CHANNELS 6 Xposition Yposition Zposition Zrotation Xrotation Yrotation
                        JOINT LeftHandPinky2
                        {
                          OFFSET 0 -3 0
                          CHANNELS 6 Xposition Yposition Zposition Zrotation Xrotation Yrotation
                          JOINT LeftHandPinky3
                          {
                            OFFSET 0 -2.35 0
                            CHANNELS 6 Xposition Yposition Zposition Zrotation Xrotation Yrotation
                            End Site
                            {
                              OFFSET 0 -2.1 0
                            }
                          }
                        }
                      }
                    }
                  }
                }
              }
            }
          }
          JOINT RightShoulder
          {
            OFFSET -5 17 0
            CHANNELS 6 Xposition Yposition Zposition Zrotation Xrotation Yrotation
            JOINT RightShoulder2
            {
              OFFSET -6.45 0 0
              CHANNELS 6 Xposition Yposition Zposition Zrotation Xrotation Yrotation
              JOINT RightArm
              {
                OFFSET -6.45 0 0
                CHANNELS 6 Xposition Yposition Zposition Zrotation Xrotation Yrotation
                JOINT RightForeArm
                {
                  OFFSET 0 -32.4 -2
                  CHANNELS 6 Xposition Yposition Zposition Zrotation Xrotation Yrotation
                  JOINT RightHand
                  {
                    OFFSET 0 -25.65 2
                    CHANNELS 6 Xposition Yposition Zposition Zrotation Xrotation Yrotation
                    JOINT RightHandThumb1
                    {
                      OFFSET 0.5 -1.5 2.65
                      CHANNELS 6 Xposition Yposition Zposition Zrotation Xrotation Yrotation
                      JOINT RightHandThumb2
                      {
                        OFFSET 0 -3.8 3.7
                        CHANNELS 6 Xposition Yposition Zposition Zrotation Xrotation Yrotation
                        JOINT RightHandThumb3
                        {
                          OFFSET 0 -3 2.7
                          CHANNELS 6 Xposition Yposition Zposition Zrotation Xrotation Yrotation
                          End Site
                          {
                            OFFSET 0 -2.3 1.8
                          }
                        }
                      }
                    }
                    JOINT RightHandIndex
                    {
                      OFFSET 0 -1.9 1.6
                      CHANNELS 6 Xposition Yposition Zposition Zrotation Xrotation Yrotation
                      JOINT RightHandIndex1
                      {
                        OFFSET 0 -8.3 1.9
                        CHANNELS 6 Xposition Yposition Zposition Zrotation Xrotation Yrotation
                        JOINT RightHandIndex2
                        {
                          OFFSET 0 -4.5 0
                          CHANNELS 6 Xposition Yposition Zposition Zrotation Xrotation Yrotation
                          JOINT RightHandIndex3
                          {
                            OFFSET 0 -3.4 0
                            CHANNELS 6 Xposition Yposition Zposition Zrotation Xrotation Yrotation
                            End Site
                            {
                              OFFSET 0 -2.6 0
                            }
                          }
                        }
                      }
                    }
                    JOINT RightHandMiddle
                    {
                      OFFSET 0.25 -2.2 0.4
                      CHANNELS 6 Xposition Yposition Zposition Zrotation Xrotation Yrotation
                      JOINT RightHandMiddle1
                      {
                        OFFSET 0 -8.3 1
                        CHANNELS 6 Xposition Yposition Zposition Zrotation Xrotation Yrotation
                        JOINT RightHandMiddle2
                        {
                          OFFSET 0 -4.65 0
                          CHANNELS 6 Xposition Yposition Zposition Zrotation Xrotation Yrotation
                          JOINT RightHandMiddle3
                          {
                            OFFSET 0 -3.3 0
                            CHANNELS 6 Xposition Yposition Zposition Zrotation Xrotation Yrotation
                            End Site
                            {
                              OFFSET 0 -2.7 0
                            }
                          }
                        }
                      }
                    }
                    JOINT RightHandRing
                    {
                      OFFSET 0.5 -2.15 -0.8
                      CHANNELS 6 Xposition Yposition Zposition Zrotation Xrotation Yrotation
                      JOINT RightHandRing1
                      {
                        OFFSET 0 -7.75 -0.2
                        CHANNELS 6 Xposition Yposition Zposition Zrotation Xrotation Yrotation
                        JOINT RightHandRing2
                        {
                          OFFSET 0 -3.8 0
                          CHANNELS 6 Xposition Yposition Zposition Zrotation Xrotation Yrotation
                          JOINT RightHandRing3
                          {
                            OFFSET 0 -3.4 0
                            CHANNELS 6 Xposition Yposition Zposition Zrotation Xrotation Yrotation
                            End Site
                            {
                              OFFSET 0 -2.6 0
                            }
                          }
                        }
                      }
                    }
                    JOINT RightHandPinky
                    {
                      OFFSET 0.75 -1.75 -1.85
                      CHANNELS 6 Xposition Yposition Zposition Zrotation Xrotation Yrotation
                      JOINT RightHandPinky1
                      {
                        OFFSET 0 -7.15 -1
                        CHANNELS 6 Xposition Yposition Zposition Zrotation Xrotation Yrotation
                        JOINT RightHandPinky2
                        {
                          OFFSET 0 -3 0
                          CHANNELS 6 Xposition Yposition Zposition Zrotation Xrotation Yrotation
                          JOINT RightHandPinky3
                          {
                            OFFSET 0 -2.35 0
                            CHANNELS 6 Xposition Yposition Zposition Zrotation Xrotation Yrotation
                            End Site
                            {
                              OFFSET 0 -2.1 0
                            }
                          }
                        }
                      }
                    }
                  }
                }
              }
            }
          }
        }
      }
    }
  }
  JOINT LeftUpLeg
  {
    OFFSET 8 0 0
    CHANNELS 6 Xposition Yposition Zposition Zrotation Xrotation Yrotation
    JOINT LeftLeg
    {
      OFFSET 0 -45 -1
      CHANNELS 6 Xposition Yposition Zposition Zrotation Xrotation Yrotation
      JOINT LeftFoot
      {
        OFFSET 0 -41 -2
        CHANNELS 6 Xposition Yposition Zposition Zrotation Xrotation Yrotation
        JOINT LeftToeBase
        {
          OFFSET 0 -7.5 12.5
          CHANNELS 6 Xposition Yposition Zposition Zrotation Xrotation Yrotation
          JOINT LeftFootToe
          {
            OFFSET 0 0 4
            CHANNELS 6 Xposition Yposition Zposition Zrotation Xrotation Yrotation
            End Site
            {
              OFFSET 0 0 0
            }
          }
        }
      }
    }
  }
  JOINT RightUpLeg
  {
    OFFSET -8 0 0
    CHANNELS 6 Xposition Yposition Zposition Zrotation Xrotation Yrotation
    JOINT RightLeg
    {
      OFFSET 0 -45 -1
      CHANNELS 6 Xposition Yposition Zposition Zrotation Xrotation Yrotation
      JOINT RightFoot
      {
        OFFSET 0 -41 -2
        CHANNELS 6 Xposition Yposition Zposition Zrotation Xrotation Yrotation
        JOINT RightToeBase
        {
          OFFSET 0 -7.5 12.5
          CHANNELS 6 Xposition Yposition Zposition Zrotation Xrotation Yrotation
          JOINT RightFootToe
          {
            OFFSET 0 0 4
            CHANNELS 6 Xposition Yposition Zposition Zrotation Xrotation Yrotation
            End Site
            {
              OFFSET 0 0 0
            }
          }
        }
      }
    }
  }
}
MOTION
Frames:	3
Frame Time:	0.0111111
-136.494 74.9007 1306.43 -7.93767 0.948569 174.395 0 8 0 8.43313 13.0481 -11.0703 0 8 2.27374e-13 1.29917 5.75271 -0.0521643 -5.68434e-14 8 2.27374e-13 0.662482 2.8784 -0.00973845 -2.84217e-14 8 -2.27374e-13 0.661618 2.8746 -0.00969869 -8.52651e-14 17 -2.27374e-13 3.1477 0.432796 -5.08091 5.68434e-14 10.8 0 7.39596 0.571981 -11.9022 5 17 0 -10.4875 0.28548 -5.04356 6.45 0 2.27374e-13 -0.648817 0.322574 3.06189 6.45 0 0 32.9858 29.6609 34.2766 2.84217e-14 -32.4 -2 -10.8366 -72.7695 -34.7514 0 -25.65 2 -17.7328 -53.2192 -47.79 -0.5 -1.5 2.65 -14.1649 -4.99037 38.5719 1.13687e-13 -3.8 3.7 -0.085516 -0.923434 0.00748883 1.13687e-13 -3 2.7 -0.0163537 35.305 0.00852116 1.13687e-13 -1.9 1.6 0 0 -9.54166e-15 0 -8.3 1.9 -32.3058 9.13819 3.02386 0 -4.5 1.7053e-13 -86.6359 0.00320736 -0.00162609 0 -3.4 1.98952e-13 -79.8112 0.0147484 0.00530363 -0.25 -2.2 0.4 0 0 -9.54166e-15 -1.13687e-13 -8.3 1 -43.8095 12.7513 6.60063 2.27374e-13 -4.65 -1.13687e-13 -55.503 0.000863568 0.000872651 0 -3.3 0 -90.0002 6.59965e-14 -6.44062e-14 -0.5 -2.15 -0.8 0 0 -9.54166e-15 0 -7.75 -0.2 -52.3298 10.2951 7.919 0 -3.8 -8.52651e-14 -60.8665 0.00466183 -0.00188088 0 -3.4 0 -90.0002 0.00281162 -5.56597e-15 -0.75 -1.75 -1.85 0 0 -9.54166e-15 1.13687e-13 -7.15 -1 -49.3334 12.2292 8.76788 -2.27374e-13 -3 1.13687e-13 -71.759 0.00653157 -0.00423045 1.13687e-13 -2.35 -1.13687e-13 -53.9665 0.0144705 0.0031124 -5 17 2.27374e-13 1.88352 0.361204 -1.36541 -6.45 0 0 -1.26499 -0.343885 -1.38158 -6.45 1.13687e-13 0 -46.5108 -12.7776 -0.320911 0 -32.4 -2 -3.11524 -71.0165 7.94671 0 -25.65 2 2.75525 -21.4385 20.2514 0.5 -1.5 2.65 67.6143 53.8397 -143.987 0 -3.8 3.7 2.18377 -8.07271 0.210716 -2.27374e-13 -3 2.7 0.304968 57.0298 -0.241108 0 -1.9 1.6 -4.77083e-15 -4.77083e-15 -3.18055e-15 0 -8.3 1.9 24.6101 16.3873 -3.90968 -1.13687e-13 -4.5 0 1.10918 0.000169015 -0.00640656 0 -3.4 1.7053e-13 1.08985 0.000121035 -0.00939297 0.25 -2.2 0.4 -4.77083e-15 -4.77083e-15 -3.18055e-15 -5.68434e-14 -8.3 1 25.1948 8.02335 -2.9897 1.13687e-13 -4.65 -2.84217e-13 21.0334 0.00111734 0.00153949 2.27374e-13 -3.3 0 16.5584 0.00180713 -0.00913469 0.5 -2.15 -0.8 -4.77083e-15 -4.77083e-15 -3.18055e-15 0 -7.75 -0.2 53.1544 6.22528 -7.08007 2.27374e-13 -3.8 3.97904e-13 73.5398 -0.00367596 0.00074601 -1.13687e-13 -3.4 -2.27374e-13 56.216 0.000871789 0.000306685 0.75 -1.75 -1.85 -4.77083e-15 -4.77083e-15 -3.18055e-15 -5.68434e-14 -7.15 -1 73.1163 -6.41103 -2.86317 0 -3 5.68434e-14 8.01945 -0.000967382 0.00692233 0 -2.35 -2.84217e-14 7.22654 -0.00369951 0.00539017 8 -2.84217e-14 0 -13.5923 -46.141 -11.5463 2.84217e-14 -45 -1 -31.6716 74.3424 42.7709 0 -41 -2 4.12059 -7.07867 -3.54172 1.42109e-14 -7.5 12.5 -2.69681e-15 -19.7166 8.44659e-16 -1.42109e-14 -1.42109e-14 4 -18.7626 8.9888 69.4265 -8 -1.42109e-14 0 -5.28166 -54.6037 1.48657 -4.26326e-14 -45 -1 4.82433 81.9765 -5.65252 -1.42109e-14 -41 -2 -4.39267 -6.19715 7.79504 0 -7.5 12.5 -2.5882e-15 -20.8305 8.93284e-15 -5.68434e-14 0 4 -6.72435 19.2835 38.9634 
-136.486 74.9001 1306.43 -7.96812 0.95958 174.368 0 8 0 8.4805 13.0313 -11.0889 0 8 0 1.29829 5.76654 -0.0241399 0 8 2.27374e-13 0.661859 2.88526 0.00429311 0 8 0 0.660996 2.88141 0.00431363 -8.52651e-14 17 -2.27374e-13 3.14498 0.44558 -5.08021 5.68434e-14 10.8 0 7.39139 0.602071 -11.9048 5 17 -2.27374e-13 -10.5652 0.264123 -5.07681 6.45 -5.68434e-14 0 -0.648979 0.315675 3.06742 6.45 1.13687e-13 0 33.0549 29.6188 34.1539 2.84217e-14 -32.4 -2 -10.4529 -72.6258 -34.3953 -5.68434e-14 -25.65 2 -17.6806 -53.1415 -47.8347 -0.5 -1.5 2.65 -14.1979 -5.22693 39.2842 0 -3.8 3.7 -0.0855234 -0.923434 0.00749435 0 -3 2.7 -0.0164646 35.5225 0.00854456 0 -1.9 1.6 7.06225e-31 3.18055e-15 -1.27222e-14 1.13687e-13 -8.3 1.9 -32.6559 9.13535 3.06349 -2.27374e-13 -4.5 1.13687e-13 -86.5709 0.00320008 -0.00164991 0 -3.4 8.52651e-14 -79.6478 0.0148324 0.00529041 -0.25 -2.2 0.4 7.06225e-31 3.18055e-15 -1.27222e-14 0 -8.3 1 -44.1171 12.7367 6.65307 0 -4.65 -8.52651e-14 -55.4417 0.000862135 0.000891442 -2.27374e-13 -3.3 0 -90.0002 -4.92986e-14 4.13472e-14 -0.5 -2.15 -0.8 7.06225e-31 3.18055e-15 -1.27222e-14 1.13687e-13 -7.75 -0.2 -52.5966 10.2519 7.95579 2.27374e-13 -3.8 -8.52651e-14 -60.7712 0.00467577 -0.0019026 0 -3.4 2.84217e-14 -90.0002 0.00281162 5.56597e-14 -0.75 -1.75 -1.85 7.06225e-31 3.18055e-15 -1.27222e-14 1.13687e-13 -7.15 -1 -49.4928 12.1954 8.79422 0 -3 1.7053e-13 -71.7104 0.00658843 -0.00421219 0 -2.35 -1.42109e-13 -53.9086 0.0145289 0.00330019 -5 17 -2.27374e-13 1.84054 0.329488 -1.40467 -6.45 0 0 -1.26342 -0.343797 -1.37851 -6.45 5.68434e-14 0 -46.3982 -12.5856 -0.274204 -1.42109e-14 -32.4 -2 -3.8469 -71.1988 7.31548 2.84217e-14 -25.65 2 2.99109 -21.4799 20.3211 0.5 -1.5 2.65 67.7143 53.8672 -144.086 -2.27374e-13 -3.8 3.7 2.19668 -8.15382 0.2107 -2.27374e-13 -3 2.7 0.304732 57.0381 -0.240918 0 -1.9 1.6 -1.59028e-15 -1.59028e-15 -1.23246e-14 0 -8.3 1.9 24.7337 16.3756 -3.92735 0 -4.5 -1.13687e-13 0.961888 0.000158843 -0.00653336 1.13687e-13 -3.4 2.27374e-13 0.947643 0.000114057 -0.00950102 0.25 -2.2 0.4 -1.59028e-15 -1.59028e-15 -1.23246e-14 5.68434e-14 -8.3 1 25.233 8.05408 -2.99944 1.13687e-13 -4.65 -3.41061e-13 21.1346 0.00125008 0.00158731 0 -3.3 -1.13687e-13 16.6231 0.00179763 -0.00911138 0.5 -2.15 -0.8 -1.59028e-15 -1.59028e-15 -1.23246e-14 -5.68434e-14 -7.75 -0.2 53.1666 6.25916 -7.09846 -2.27374e-13 -3.8 5.68434e-13 73.6335 -0.00379899 0.000807873 -1.13687e-13 -3.4 -2.27374e-13 56.3411 0.000933841 0.000368213 0.75 -1.75 -1.85 -1.59028e-15 -1.59028e-15 -1.23246e-14 -5.68434e-14 -7.15 -1 73.1318 -6.40311 -2.87164 0 -3 0 8.11377 -0.00107001 0.00706715 0 -2.35 2.84217e-14 7.30257 -0.00383618 0.0056416 8 0 0 -13.5258 -46.1625 -11.4191 5.68434e-14 -45 -1 -31.6678 74.3434 42.765 0 -41 -2 4.1242 -7.06382 -3.55042 1.42109e-14 -7.5 12.5 -1.33095e-15 -19.7336 2.53425e-15 0 0 4 -18.7666 9.00714 69.4341 -8 0 2.27374e-13 -5.00643 -54.6061 1.84682 -4.26326e-14 -45 -1 4.82807 81.9793 -5.65661 -2.84217e-14 -41 -2 -4.38534 -6.19818 7.76749 0 -7.5 12.5 3.32963e-16 -20.8247 -2.9775e-15 0 0 4 -6.70193 19.2809 38.9228 
-136.475 74.8993 1306.44 -7.99691 0.968438 174.362 0 8 0 8.52627 13.0104 -11.1015 -5.68434e-14 8 2.27374e-13 1.30356 5.77741 -0.00244996 5.68434e-14 8 6.82121e-13 0.661428 2.89064 0.0152273 -2.84217e-14 8 -2.27374e-13 0.660564 2.88679 0.0152301 -5.68434e-14 17 0 3.14496 0.460778 -5.0822 0 10.8 2.27374e-13 7.38459 0.637897 -11.9077 5 17 2.27374e-13 -10.6501 0.245336 -5.1123 6.45 0 0 -0.649066 0.308731 3.07338 6.45 -5.68434e-14 0 33.1814 29.563 33.9779 0 -32.4 -2 -10.108 -72.4432 -34.0638 0 -25.65 2 -17.6279 -53.0643 -47.878 -0.5 -1.5 2.65 -14.2003 -5.45557 40.0191 1.13687e-13 -3.8 3.7 -0.0855309 -0.923434 0.00749986 0 -3 2.7 -0.0165711 35.707 0.00856358 -1.13687e-13 -1.9 1.6 7.06225e-31 6.36111e-15 -6.36111e-15 0 -8.3 1.9 -32.9844 9.1355 3.09949 2.27374e-13 -4.5 1.13687e-13 -86.4845 0.00319307 -0.00167335 0 -3.4 1.13687e-13 -79.4302 0.0149132 0.00527695 -0.25 -2.2 0.4 7.06225e-31 6.36111e-15 -6.36111e-15 0 -8.3 1 -44.3906 12.7158 6.69328 0 -4.65 -8.52651e-14 -55.3862 0.000861499 0.000911024 -2.27374e-13 -3.3 2.84217e-14 -90.0002 1.43125e-14 -1.35174e-14 -0.5 -2.15 -0.8 7.06225e-31 6.36111e-15 -6.36111e-15 1.13687e-13 -7.75 -0.2 -52.8222 10.2042 7.97787 0 -3.8 -1.13687e-13 -60.7075 0.00468999 -0.00192306 -1.13687e-13 -3.4 0 -90.0002 0.00281162 2.38542e-15 -0.75 -1.75 -1.85 7.06225e-31 6.36111e-15 -6.36111e-15 2.27374e-13 -7.15 -1 -49.6133 12.1508 8.80275 0 -3 1.13687e-13 -71.6108 0.00664605 -0.0041935 0 -2.35 -8.52651e-14 -53.7896 0.0145868 0.00349272 -5 17 0 1.80764 0.301989 -1.41889 -6.45 0 0 -1.26186 -0.343704 -1.37545 -6.45 5.68434e-14 0 -46.2788 -12.3137 -0.261142 -1.42109e-14 -32.4 -2 -4.78962 -71.3988 6.49557 0 -25.65 2 3.26215 -21.5556 20.3903 0.5 -1.5 2.65 67.7715 53.8675 -144.132 -2.27374e-13 -3.8 3.7 2.19749 -8.15841 0.210552 0 -3 2.7 0.304426 57.0389 -0.240674 0 -1.9 1.6 -3.18055e-15 -1.59028e-15 -4.77083e-15 -5.68434e-14 -8.3 1.9 24.8255 16.3041 -3.92524 -1.13687e-13 -4.5 0 0.82911 0.000148051 -0.0066602 1.13687e-13 -3.4 1.7053e-13 0.818568 0.000106586 -0.00960941 0.25 -2.2 0.4 -3.18055e-15 -1.59028e-15 -4.77083e-15 -5.68434e-14 -8.3 1 25.2566 8.07401 -3.00522 0 -4.65 -2.27374e-13 21.2906 0.00138364 0.00163725 0 -3.3 -5.68434e-14 16.7227 0.00178873 -0.009087 0.5 -2.15 -0.8 -3.18055e-15 -1.59028e-15 -4.77083e-15 -5.68434e-14 -7.75 -0.2 53.1657 6.27828 -7.10674 0 -3.8 3.41061e-13 73.7644 -0.00391648 0.000871462 0 -3.4 -2.27374e-13 56.5146 0.000996491 0.000431758 0.75 -1.75 -1.85 -3.18055e-15 -1.59028e-15 -4.77083e-15 5.68434e-14 -7.15 -1 73.1056 -6.40726 -2.86368 0 -3 5.68434e-14 8.24078 -0.00117529 0.00721247 2.27374e-13 -2.35 0 7.4047 -0.00397503 0.00589392 8 0 0 -13.4592 -46.1839 -11.2917 2.84217e-14 -45 -1 -31.6658 74.344 42.7617 -2.84217e-14 -41 -2 4.12649 -7.04973 -3.55706 2.84217e-14 -7.5 12.5 -2.09995e-15 -19.7489 8.44829e-16 0 0 4 -18.7666 9.0231 69.4409 -8 -1.42109e-14 0 -4.73101 -54.6073 2.20727 0 -45 -1 4.82922 81.9858 -5.65714 -1.42109e-14 -41 -2 -4.37139 -6.19871 7.707 0 -7.5 12.5 -5.40277e-16 -20.8243 1.27607e-15 -2.84217e-14 -1.77636e-15 4 -6.70574 19.275 38.9381 
